<?xml version="1.0" encoding="UTF-8" standalone="no"?>
<!DOCTYPE svg PUBLIC "-//W3C//DTD SVG 1.1//EN" "http://www.w3.org/Graphics/SVG/1.1/DTD/svg11.dtd">
<svg width="100%" height="100%" viewBox="0 0 5906 2953" version="1.1" xmlns="http://www.w3.org/2000/svg" xmlns:xlink="http://www.w3.org/1999/xlink" xml:space="preserve" xmlns:serif="http://www.serif.com/" style="fill-rule:evenodd;clip-rule:evenodd;stroke-linejoin:round;stroke-miterlimit:2;">
    <g transform="matrix(1.42948,0,0,1.26017,-357.507,-175.929)">
        <g transform="matrix(0.790279,0,0,0.896451,0,0)">
            <path d="M2405.26,2205.13C2442.76,2205.13 2482.76,2167.63 2482.76,2120.13C2482.76,2055.13 2382.76,1937.63 2320.26,1937.63C2282.76,1937.63 2245.26,1957.63 2245.26,1987.63C2245.26,1997.63 2250.26,2007.63 2260.26,2020.13C2280.26,2042.63 2317.76,2090.13 2345.26,2157.63C2357.76,2190.13 2382.76,2205.13 2405.26,2205.13ZM2750.26,1602.63C2810.26,1602.63 2837.76,1555.13 2837.76,1507.63C2837.76,1460.13 2810.26,1412.63 2750.26,1412.63L1852.76,1412.63L1852.76,1305.13C1937.76,1305.13 2007.76,1307.63 2070.26,1307.63C2157.76,1307.63 2237.76,1305.13 2342.76,1302.63C2525.26,1297.63 2562.76,1192.63 2562.76,1017.63C2562.76,932.628 2560.26,802.628 2557.76,765.128C2537.76,585.128 2382.76,585.128 2155.26,585.128C2162.76,565.128 2190.26,480.128 2190.26,442.628C2190.26,375.128 2127.76,337.628 2070.26,337.628C2022.76,337.628 1975.26,362.628 1970.26,415.128C1965.26,462.628 1950.26,530.128 1937.76,587.628C1912.76,587.628 1887.76,590.128 1862.76,590.128C1722.76,597.628 1652.76,670.128 1650.26,805.128C1647.76,967.628 1647.76,1135.13 1647.76,1305.13C1647.76,1430.13 1647.76,1555.13 1650.26,1677.63C1637.76,1645.13 1602.76,1625.13 1570.26,1625.13C1532.76,1625.13 1495.26,1652.63 1495.26,1710.13C1495.26,1857.63 1485.26,1895.13 1427.76,1895.13L1420.26,1895.13C1397.76,1890.13 1392.76,1875.13 1392.76,1840.13L1392.76,1820.13C1400.26,1647.63 1437.76,1280.13 1447.76,1090.13L1447.76,1075.13C1447.76,987.628 1402.76,895.128 1265.26,892.628L1120.26,892.628C1122.76,827.628 1122.76,765.128 1122.76,702.628L1122.76,520.128C1122.76,450.128 1067.76,415.128 1012.76,415.128C955.256,415.128 900.256,450.128 900.256,522.628C900.256,647.628 905.256,772.628 907.756,895.128C835.256,897.628 765.256,897.628 715.256,900.128C657.756,902.628 627.756,950.128 627.756,1000.13C627.756,1050.13 660.256,1102.63 720.256,1102.63L722.756,1102.63C770.256,1102.63 837.756,1100.13 907.756,1097.63C902.756,1500.13 850.256,1875.13 592.756,2220.13C575.256,2242.63 567.756,2265.13 567.756,2287.63C567.756,2350.13 627.756,2400.13 692.756,2400.13C727.756,2400.13 765.256,2385.13 792.756,2347.63C1035.26,2027.63 1097.76,1557.63 1115.26,1095.13L1175.26,1095.13C1230.26,1095.13 1240.26,1120.13 1240.26,1160.13L1240.26,1172.63C1232.76,1327.63 1202.76,1667.63 1192.76,1835.13L1192.76,1875.13C1192.76,2062.63 1272.76,2082.63 1365.26,2082.63C1497.76,2082.63 1640.26,2080.13 1655.26,1757.63C1677.76,1877.63 1782.76,1910.13 1900.26,1910.13L1912.76,1910.13C2067.76,1907.63 2200.26,1905.13 2332.76,1905.13L2477.76,1905.13C2525.26,1905.13 2555.26,1930.13 2555.26,1982.63C2555.26,1995.13 2535.26,2377.63 2277.76,2377.63C2220.26,2377.63 2155.26,2360.13 2082.76,2327.63C2065.26,2320.13 2050.26,2317.63 2035.26,2317.63C1977.76,2317.63 1945.26,2375.13 1945.26,2430.13C1945.26,2470.13 1962.76,2510.13 2002.76,2525.13C2120.26,2567.63 2220.26,2587.63 2305.26,2587.63C2675.26,2587.63 2782.76,2182.63 2782.76,1950.13C2782.76,1807.63 2725.26,1725.13 2572.76,1720.13C2467.76,1717.63 2370.26,1717.63 2277.76,1717.63C2150.26,1717.63 2035.26,1717.63 1925.26,1720.13C1867.76,1720.13 1855.26,1707.63 1855.26,1642.63L1855.26,1602.63L2750.26,1602.63ZM2257.76,2190.13C2257.76,2127.63 2187.76,2015.13 2170.26,1992.63C2150.26,1967.63 2120.26,1955.13 2092.76,1955.13C2052.76,1955.13 2015.26,1977.63 2015.26,2010.13C2015.26,2017.63 2017.76,2025.13 2022.76,2035.13C2050.26,2085.13 2082.76,2155.13 2095.26,2222.63C2102.76,2262.63 2132.76,2282.63 2162.76,2282.63C2207.76,2282.63 2257.76,2245.13 2257.76,2190.13ZM1997.76,2247.63C1997.76,2182.63 1982.76,2095.13 1965.26,2035.13C1952.76,1992.63 1912.76,1972.63 1875.26,1972.63C1835.26,1972.63 1800.26,1992.63 1800.26,2035.13C1800.26,2040.13 1802.76,2045.13 1802.76,2050.13C1810.26,2090.13 1817.76,2145.13 1817.76,2202.63C1817.76,2222.63 1817.76,2242.63 1815.26,2262.63L1815.26,2272.63C1815.26,2320.13 1850.26,2340.13 1892.76,2340.13C1942.76,2340.13 1997.76,2307.63 1997.76,2247.63ZM1515.26,2487.63C1675.26,2487.63 1765.26,2177.63 1765.26,2057.63C1765.26,2007.63 1715.26,1977.63 1665.26,1977.63C1622.76,1977.63 1580.26,2000.13 1575.26,2052.63C1562.76,2160.13 1490.26,2277.63 1442.76,2325.13C1417.76,2350.13 1407.76,2375.13 1407.76,2397.63C1407.76,2447.63 1457.76,2487.63 1515.26,2487.63ZM2352.76,870.128L1857.76,870.128L1857.76,847.628C1860.26,765.128 1865.26,762.628 2107.76,762.628C2342.76,762.628 2345.26,767.628 2352.76,840.128L2352.76,870.128ZM2352.76,1060.13C2345.26,1137.63 2342.76,1137.63 1980.26,1137.63L1855.26,1137.63L1855.26,1030.13L2352.76,1030.13L2352.76,1060.13Z" style="fill:url(#_Linear1);fill-rule:nonzero;"/>
        </g>
        <g transform="matrix(0.790279,0,0,0.896451,0,0)">
            <path d="M4920.26,1807.63C4985.26,1807.63 5017.76,1757.63 5017.76,1705.13C5017.76,1655.13 4985.26,1605.13 4920.26,1605.13L3590.26,1605.13C3677.76,1537.63 3760.26,1462.63 3832.76,1382.63C3845.26,1415.13 3875.26,1442.63 3922.76,1442.63L4540.26,1442.63C4605.26,1442.63 4635.26,1395.13 4635.26,1345.13C4635.26,1297.63 4605.26,1250.13 4540.26,1250.13L3945.26,1250.13C4062.76,1095.13 4225.26,837.628 4225.26,727.628L4225.26,715.128C4477.76,1227.63 4987.76,1680.13 5157.76,1680.13C5237.76,1680.13 5292.76,1617.63 5292.76,1552.63C5292.76,1512.63 5270.26,1470.13 5217.76,1445.13C5055.26,1367.63 4920.26,1275.13 4807.76,1170.13C4912.76,1060.13 5072.76,870.128 5107.76,827.628C5140.26,785.128 5157.76,737.628 5157.76,695.128C5157.76,607.628 5090.26,532.628 4937.76,532.628C4887.76,532.628 4757.76,530.128 4657.76,530.128C4572.76,530.128 4480.26,530.128 4480.26,630.128C4480.26,677.628 4515.26,725.128 4582.76,725.128L4585.26,725.128L4810.26,722.628C4835.26,722.628 4865.26,730.128 4865.26,752.628C4865.26,785.128 4700.26,977.628 4665.26,1017.63C4545.26,875.128 4457.76,715.128 4385.26,557.628C4367.76,517.628 4332.76,497.628 4295.26,497.628C4242.76,497.628 4185.26,540.128 4185.26,602.628C4185.26,610.128 4187.76,615.128 4187.76,622.628C4157.76,590.128 4105.26,567.628 4027.76,567.628C3977.76,567.628 3877.76,570.128 3785.26,572.628L3795.26,552.628C3807.76,530.128 3812.76,510.128 3812.76,492.628C3812.76,427.628 3755.26,380.128 3697.76,380.128C3660.26,380.128 3622.76,400.128 3600.26,450.128C3497.76,667.628 3352.76,852.628 3167.76,987.628C3120.26,1022.63 3100.26,1060.13 3100.26,1095.13C3100.26,1150.13 3150.26,1195.13 3212.76,1195.13C3357.76,1195.13 3627.76,820.128 3677.76,747.628C3767.76,745.128 3877.76,742.628 3932.76,742.628C3950.26,742.628 3977.76,750.128 3977.76,772.628C3977.76,792.628 3932.76,880.128 3900.26,940.128C3817.76,885.128 3735.26,852.628 3697.76,852.628C3637.76,852.628 3592.76,910.128 3592.76,962.628C3592.76,997.628 3610.26,1030.13 3655.26,1045.13C3700.26,1060.13 3742.76,1075.13 3790.26,1105.13C3762.76,1142.63 3732.76,1180.13 3700.26,1217.63C3625.26,1165.13 3532.76,1112.63 3480.26,1112.63C3417.76,1112.63 3372.76,1170.13 3372.76,1225.13C3372.76,1260.13 3390.26,1292.63 3435.26,1307.63C3477.76,1320.13 3517.76,1335.13 3560.26,1360.13C3447.76,1460.13 3317.76,1542.63 3177.76,1590.13C3115.26,1610.13 3090.26,1650.13 3090.26,1690.13C3090.26,1745.13 3140.26,1800.13 3205.26,1800.13C3255.26,1800.13 3382.76,1740.13 3482.76,1677.63C3480.26,1685.13 3480.26,1695.13 3480.26,1705.13C3480.26,1755.13 3515.26,1807.63 3582.76,1807.63L4105.26,1810.13L4105.26,2180.13C4105.26,2285.13 4027.76,2317.63 3940.26,2317.63C3907.76,2317.63 3870.26,2312.63 3837.76,2305.13C3827.76,2302.63 3817.76,2302.63 3807.76,2302.63C3745.26,2302.63 3707.76,2355.13 3707.76,2410.13C3707.76,2497.63 3777.76,2547.63 3952.76,2547.63C4217.76,2547.63 4337.76,2382.63 4337.76,2232.63L4337.76,2227.63L4335.26,2015.13L4335.26,1810.13L4920.26,1807.63ZM5017.76,2430.13C5082.76,2430.13 5140.26,2370.13 5140.26,2302.63C5140.26,2270.13 5127.76,2235.13 5097.76,2205.13C4962.76,2067.63 4650.26,1910.13 4582.76,1910.13C4520.26,1910.13 4475.26,1962.63 4475.26,2017.63C4475.26,2052.63 4492.76,2087.63 4535.26,2107.63C4675.26,2177.63 4835.26,2270.13 4927.76,2382.63C4955.26,2415.13 4987.76,2430.13 5017.76,2430.13ZM3847.76,2085.13C3865.26,2062.63 3875.26,2040.13 3875.26,2017.63C3875.26,1955.13 3815.26,1897.63 3755.26,1897.63C3727.76,1897.63 3700.26,1910.13 3677.76,1937.63C3572.76,2067.63 3435.26,2165.13 3280.26,2220.13C3225.26,2240.13 3200.26,2280.13 3200.26,2320.13C3200.26,2380.13 3252.76,2442.63 3325.26,2442.63C3437.76,2442.63 3737.76,2215.13 3847.76,2085.13Z" style="fill:url(#_Linear2);fill-rule:nonzero;"/>
        </g>
    </g>
    <defs>
        <linearGradient id="_Linear1" x1="0" y1="0" x2="1" y2="0" gradientUnits="userSpaceOnUse" gradientTransform="matrix(2500,0,0,2500,452.756,1460.13)"><stop offset="0" style="stop-color:rgb(255,142,0);stop-opacity:1"/><stop offset="1" style="stop-color:rgb(220,0,42);stop-opacity:1"/></linearGradient>
        <linearGradient id="_Linear2" x1="0" y1="0" x2="1" y2="0" gradientUnits="userSpaceOnUse" gradientTransform="matrix(2500,0,0,2500,2952.76,1460.13)"><stop offset="0" style="stop-color:rgb(235,0,24);stop-opacity:1"/><stop offset="1" style="stop-color:rgb(61,0,228);stop-opacity:1"/></linearGradient>
    </defs>
</svg>
